<?xml version="1.0" encoding="UTF-8"?>
<svg id="Layer_1" xmlns="http://www.w3.org/2000/svg" version="1.1" viewBox="0 0 1254 1254">
  <!-- Generator: Adobe Illustrator 29.8.6, SVG Export Plug-In . SVG Version: 2.1.1 Build 1)  -->
  <path d="M1063.4,905.7l-11.1,15.7-4.4,1.8h-230.8c.2,1.3,1.6,2.1,2.6,2.9,7.5,6.2,26.8,20.5,34.9,24.9,2.1,1.2,21.7,9.5,22.9,9.5h140l-16.8,15.6h-91.4c6.4,5.2,14.2,8.2,21,12.5,49,30.8,93.7,68.7,129.4,114.4s25.2,32,29.7,42.4,2.6,13-4.4,15.1l-942.2-.3c-5.3-1.7-5.7-8.4-4.2-13.1,2.8-8.5,23.4-35,29.9-43.5,32.6-42.1,72.9-78.5,117.5-107.6,10.3-6.7,20.8-13.8,32.2-18.2l-.6-2.5c-19.5,2-40,1.6-59.8,1.3-3.3,0-6.4-1.3-9.9-1.4-8.5-.1-19.6,4.7-26.8-1.7l-11.1-13.1h141.2c1.2,0,19.9-8.9,22.2-10.2,8.4-4.9,26.7-17.9,34.1-24.3s2.4,0,1.6-2.9h-230.8c0,0-4.4-1.8-4.4-1.8l-11.1-15.7h274.3l24.9-16.1-.7-8.8c-81.8-8.6-156.9-64.3-178.1-145.3-78.7-17.8-101.5-105.2-86.4-175.9s54.5-94.7,109.1-95l25.9-36.3c-13.8-25.9,5.5-52.7,18.7-74.2-28.4-23.4-50.1-57.2-43-95.6,7.7-41.9,50-70.2,91.7-58.2,8-64,80.8-99.2,134.9-61,29.1-56.8,102.2-70.2,144.4-18.7,4.9,5.9,7.4,13.1,12.6,18.6,54.6-38.2,124.8-3,134.8,60.5,32.6-8,64.5,5.6,81.1,34.5,19.8,34.5,9.6,74.4-15.8,102.9-5.5,6.2-12.5,10.7-17.9,17,9.7,17.1,24.7,37.6,24.4,58.3,0,6.5-4.3,11-4.5,17.1l26,35.1c142.3,2.7,153.5,239.3,23,271.9-22.1,81.1-94.6,132.9-175.5,145.5-1,2.7-1.1,5.9.6,8.3s21.7,15.5,23.1,15.5h273.1ZM807.5,224.9c-4.5-6.8-2.1-14.6-3.1-22.4-6-47.6-59.8-74.3-100.4-46.3-4.6,3.1-13.9,13.9-18.2,14.2-10.6.7-9.5-9.4-12.4-16.1-21-49-78.5-61.9-112.4-17.8-8.1,10.5-7.8,19.2-12.8,28.2-7.2,12.9-14.4,1.6-20.4-2.9-46.8-35.5-100.9-11.5-108.8,45.4-.8,5.6,1.9,13.2-2.9,17.6-7.4,6.8-19-3.8-28.2-5.3-27.6-4.4-53.2,13.4-59.2,40.4-7,31.4,12.3,60.1,36.1,78.4,128.2-133.4,365.7-133.3,493.9,0,13.7-11.7,27.6-26.1,33.5-43.6,12.8-37.7-11.1-80-53.4-75.8-11.4,1.1-20.9,10.4-31.4,5.9ZM875.6,409.3c-2-18.1-14.1-34.9-25.5-48.5-110.2-132.4-357.3-133.9-471.6-6.2-13.4,14.9-29,35.8-29.8,56,88.4-90.9,233.2-115,354.2-90.4,64.8,13.1,125.5,42.8,172.7,89.2ZM601.6,332.5c-146,1.6-298.9,88.7-307,247.8-2.5,48.2-1.6,129.1,17.2,173.1,28.2,66.1,98.5,104.9,168.7,108.7,91.7,5,189-2.7,281.1-1.5,88.1-12.9,154.4-68.8,165-159.7,4.2-36,5.4-82,3.8-118.2-7.4-162.1-160.7-248.7-309.2-250.7l-19.6.4ZM295.8,486.5c-34.5,3.3-63,31.3-74.3,63.1-14.5,40.7-10.2,102.4,18.4,136.5,8.2,9.8,24.4,23.1,36.7,26.7s1.9-3.7,1.9-5.6c-2.7-62-12.8-123.4,4-185s7.6-24.4,13.3-35.8ZM946.5,712.9c64.6-21.6,77.1-110.8,55.7-167-11.3-29.7-40.2-57.6-73.1-59.4,4.8,9.5,8.7,19.6,11.8,29.8,14.2,47,12.5,110.7,9.3,159.9-.8,12.2-3.3,24.4-3.7,36.7ZM744.9,883.3h-262.5c18.2,56.2,78.7,95.9,137.5,93.4,53.5-2.3,108.6-42.2,125-93.4ZM646.6,994.1c5.4,6.4,11.8,12.1,15.6,19.8,3.3,6.8,4.2,19.2,6.7,23.1,3.1,4.8,27,19.9,33.2,22.8,62.6,29.3,126.5-8.3,135.9-75.2s1.8-15.3,1.4-17.3c-1-5.4-72.6-50.2-81.5-57.8-23.1,42.2-63.9,74.7-111.3,84.6ZM471.2,910.7c-1.7-1.2-15.2,8.1-18,9.9-21.9,13.9-42.7,29.6-64,44.2-2.3,2.8-.3,15.4.3,19.5,12.4,81.6,103.6,114.2,163.9,57.6,8.9-8.4,5.2-6.1,7.7-15.9,3.5-13.3,10-22.5,19.6-32-46.1-10.4-88.1-41-109.5-83.3ZM168.9,1140.8h890.8c-3.3-6.9-8.6-13.7-13.2-19.8-47.6-62.4-114.1-114.1-186.5-144.5-5.7,102.8-117.8,150.1-196.6,83.4-20.6,40.6-78.7,41.9-98.3,0-37.6,29.5-84,41.4-129.2,21-38.4-17.4-61.8-54.1-67.8-95.1-.4-2.8,1.3-9.7-2-9.2s-12.8,5.4-15.6,6.8c-65.1,31.9-131,85-173.4,143.9-1.1,1.5-9.1,12.8-8.2,13.6ZM612.8,1004.3c-29,1.1-43.6,38.9-20.2,58.1,25.7,21.1,63-3.9,52.2-36-4.1-12.1-19.1-22.6-32-22.1Z"/>
  <path d="M452.3,457l319.4-.4c54.7,4.6,104.8,52.3,108.9,107.6,1.9,26.2,2.1,71,0,97.1-4.6,55.8-56.4,102.7-111.3,106.4h-309.8c-63.8-4.8-110.3-53.9-113.8-117.5-1.3-22.4-1.2-52.3,0-74.7,3.2-60.6,45.6-110.9,106.8-118.4ZM452.3,478.1c-88.4,16.8-90.1,96.8-85.6,170.8,3.2,51.7,39.4,92.3,91.4,97.7h311.1c38.7-3.9,74.2-31.2,85.9-68.5,7-22.5,6.3-85,4.4-110.2-3.4-46.3-43-85.8-89-90.2l-318.2.4Z"/>
  <polygon points="518.5 538.7 518.5 558 516.6 559.8 478.7 559.8 478.7 665.6 516.6 665.6 518.5 667.5 518.5 686.7 457.5 686.7 457.5 538.7 518.5 538.7"/>
  <polygon points="768.6 538.7 768.6 686.7 708.9 686.7 708.9 667.5 710.7 665.6 747.4 665.6 747.4 559.8 708.9 559.8 708.9 538.7 768.6 538.7"/>
</svg>
